<?xml version="1.0" encoding="iso-8859-1"?>
<!-- Generator: Adobe Illustrator 16.0.0, SVG Export Plug-In . SVG Version: 6.00 Build 0)  -->
<!DOCTYPE svg PUBLIC "-//W3C//DTD SVG 1.1//EN" "http://www.w3.org/Graphics/SVG/1.1/DTD/svg11.dtd">
<svg version="1.1" id="Capa_1" xmlns="http://www.w3.org/2000/svg" xmlns:xlink="http://www.w3.org/1999/xlink" x="0px" y="0px"
	 width="121px" height="121px" viewBox="0 0 121 121" style="enable-background:new 0 0 121 121;" xml:space="preserve">
<g>
	<path d="M54.5,121h12c3.3,0,6-2.7,6-6V72.5H115c3.3,0,6-2.7,6-6v-12c0-3.3-2.7-6-6-6H72.5V6c0-3.3-2.7-6-6-6h-12c-3.3,0-6,2.7-6,6
		v42.5H6c-3.3,0-6,2.7-6,6v12c0,3.3,2.7,6,6,6h42.5V115C48.5,118.3,51.2,121,54.5,121z"/>
</g>
<g>
</g>
<g>
</g>
<g>
</g>
<g>
</g>
<g>
</g>
<g>
</g>
<g>
</g>
<g>
</g>
<g>
</g>
<g>
</g>
<g>
</g>
<g>
</g>
<g>
</g>
<g>
</g>
<g>
</g>
</svg>
