<?xml version="1.0" encoding="iso-8859-1"?>
<!-- Generator: Adobe Illustrator 18.1.1, SVG Export Plug-In . SVG Version: 6.00 Build 0)  -->
<svg version="1.1" id="Capa_1" xmlns="http://www.w3.org/2000/svg" xmlns:xlink="http://www.w3.org/1999/xlink" x="0px" y="0px"
	 viewBox="0 0 301.076 301.076" style="enable-background:new 0 0 301.076 301.076;" xml:space="preserve">
<g>
	<path style="fill:#010002;" d="M98.159,150.539L10.858,237.84c-14.461,14.469-14.461,37.936,0,52.397
		c14.453,14.453,37.92,14.453,52.372,0l87.309-87.317l87.293,87.317c14.469,14.453,37.92,14.453,52.381,0
		c14.477-14.469,14.461-37.936,0-52.397l-87.293-87.301l87.301-87.285c14.469-14.477,14.469-37.936,0-52.397
		c-14.469-14.477-37.92-14.477-52.389,0l-87.293,87.309L63.23,10.858c-14.453-14.477-37.92-14.477-52.381,0
		c-14.461,14.461-14.461,37.895,0,52.364L98.159,150.539z"/>
</g>
<g>
</g>
<g>
</g>
<g>
</g>
<g>
</g>
<g>
</g>
<g>
</g>
<g>
</g>
<g>
</g>
<g>
</g>
<g>
</g>
<g>
</g>
<g>
</g>
<g>
</g>
<g>
</g>
<g>
</g>
</svg>
