<?xml version="1.0" encoding="iso-8859-1"?>
<!-- Generator: Adobe Illustrator 18.0.0, SVG Export Plug-In . SVG Version: 6.00 Build 0)  -->
<!DOCTYPE svg PUBLIC "-//W3C//DTD SVG 1.1//EN" "http://www.w3.org/Graphics/SVG/1.1/DTD/svg11.dtd">
<svg version="1.1" id="Capa_1" xmlns="http://www.w3.org/2000/svg" xmlns:xlink="http://www.w3.org/1999/xlink" x="0px" y="0px"
	 viewBox="0 0 460.054 460.054" style="enable-background:new 0 0 460.054 460.054;" xml:space="preserve">
<g>
	<path d="M40.003,69.679C17.914,69.679,0,87.592,0,109.697c0,22.089,17.914,39.987,40.003,39.987
		c22.089,0,40.003-17.898,40.003-39.987C80.006,87.592,62.092,69.679,40.003,69.679z"/>
	<path d="M40.003,190.032C17.914,190.032,0,207.93,0,230.035c0,22.089,17.914,40.002,40.003,40.002
		c22.089,0,40.003-17.913,40.003-40.002C80.006,207.93,62.092,190.032,40.003,190.032z"/>
	<path d="M40.003,310.37C17.914,310.37,0,328.283,0,350.372c0,22.089,17.914,40.003,40.003,40.003
		c22.089,0,40.003-17.914,40.003-40.003C80.006,328.283,62.092,310.37,40.003,310.37z"/>
	<path d="M429.973,79.601H145.419c-16.611,0-30.081,13.47-30.081,30.096c0,16.612,13.469,30.081,30.081,30.081h284.554
		c16.61,0,30.081-13.469,30.081-30.081C460.054,93.071,446.583,79.601,429.973,79.601z"/>
	<path d="M429.973,199.939H145.419c-16.611,0-30.081,13.469-30.081,30.096c0,16.612,13.469,30.081,30.081,30.081h284.554
		c16.61,0,30.081-13.469,30.081-30.081C460.054,213.408,446.583,199.939,429.973,199.939z"/>
	<path d="M429.973,320.291H145.419c-16.611,0-30.081,13.469-30.081,30.081c0,16.611,13.469,30.08,30.081,30.08h284.554
		c16.61,0,30.081-13.469,30.081-30.08C460.054,333.759,446.583,320.291,429.973,320.291z"/>
</g>
</svg>
