<?xml version="1.0" encoding="iso-8859-1"?>
<!-- Generator: Adobe Illustrator 18.0.0, SVG Export Plug-In . SVG Version: 6.00 Build 0)  -->
<!DOCTYPE svg PUBLIC "-//W3C//DTD SVG 1.1//EN" "http://www.w3.org/Graphics/SVG/1.1/DTD/svg11.dtd">
<svg version="1.1" id="Capa_1" xmlns="http://www.w3.org/2000/svg" xmlns:xlink="http://www.w3.org/1999/xlink" x="0px" y="0px"
	 viewBox="0 0 484.701 484.701" style="enable-background:new 0 0 484.701 484.701;" xml:space="preserve">
<g>
	<path d="M384.28,100.273h-37.485v6.415v18.661h27.123l0.994,0.993v52.45c0,15.682,12.703,28.385,28.376,28.385h52.749l0.355,0.339
		v236.27c0,8.731-7.101,15.832-15.84,15.832H229.876c-8.344,0-15.051-6.557-15.633-14.768h-25.17
		c0.576,22.04,18.613,39.851,40.803,39.851h210.676c22.545,0,40.906-18.377,40.906-40.915V197.091L384.28,100.273z"/>
	<path d="M439.362,240.999c0-7.101-5.768-12.861-12.876-12.861h-79.692v25.736h79.692
		C433.594,253.874,439.362,248.106,439.362,240.999z"/>
	<path d="M439.362,318.209c0-7.109-5.768-12.869-12.876-12.869h-79.692v25.744h79.692
		C433.594,331.084,439.362,325.316,439.362,318.209z"/>
	<path d="M439.362,395.418c0-7.107-5.768-12.867-12.876-12.867h-80.102c-0.568,9.234-2.996,17.896-6.975,25.735h87.077
		C433.594,408.286,439.362,402.518,439.362,395.418z"/>
	<path d="M325.525,378.5V106.688L218.45,0H48.325C23.471,0,3.243,20.22,3.243,45.09V378.5c0,24.845,20.228,45.089,45.082,45.089
		h232.134C305.297,423.589,325.525,403.345,325.525,378.5z M30.863,378.5V45.09c0-9.639,7.84-17.462,17.462-17.462h158.707
		l1.096,1.096v57.792c0,17.281,13.995,31.276,31.26,31.276h58.125l0.394,0.378V378.5c0,9.63-7.826,17.445-17.448,17.445H48.325
		C38.703,395.945,30.863,388.13,30.863,378.5z"/>
	<path d="M264.967,140.888H63.801c-4.972,0-9.141,2.72-11.669,6.597c-1.451,2.23-2.506,4.729-2.506,7.581
		c0,2.852,1.056,5.358,2.506,7.581c2.529,3.876,6.697,6.596,11.669,6.596h201.166c4.972,0,9.141-2.72,11.67-6.596
		c1.449-2.223,2.506-4.729,2.506-7.581c0-2.853-1.057-5.352-2.506-7.581C274.108,143.607,269.939,140.888,264.967,140.888z"/>
	<path d="M264.967,225.963H63.801c-4.972,0-9.141,2.711-11.669,6.596c-1.451,2.222-2.506,4.729-2.506,7.58
		c0,2.854,1.056,5.352,2.506,7.582c2.529,3.876,6.697,6.596,11.669,6.596h201.166c4.972,0,9.141-2.72,11.67-6.596
		c1.449-2.23,2.506-4.729,2.506-7.582c0-2.852-1.057-5.358-2.506-7.58C274.108,228.674,269.939,225.963,264.967,225.963z"/>
	<path d="M264.967,311.029H63.801c-4.972,0-9.141,2.719-11.669,6.596c-1.451,2.222-2.506,4.728-2.506,7.58
		c0,2.854,1.056,5.359,2.506,7.582c2.529,3.885,6.697,6.603,11.669,6.603h201.166c4.972,0,9.141-2.719,11.67-6.603
		c1.449-2.223,2.506-4.729,2.506-7.582c0-2.852-1.057-5.358-2.506-7.58C274.108,313.748,269.939,311.029,264.967,311.029z"/>
</g>
</svg>
