<?xml version="1.0" encoding="iso-8859-1"?>
<!-- Generator: Adobe Illustrator 18.0.0, SVG Export Plug-In . SVG Version: 6.00 Build 0)  -->
<!DOCTYPE svg PUBLIC "-//W3C//DTD SVG 1.1//EN" "http://www.w3.org/Graphics/SVG/1.1/DTD/svg11.dtd">
<svg version="1.1" id="Capa_1" xmlns="http://www.w3.org/2000/svg" xmlns:xlink="http://www.w3.org/1999/xlink" x="0px" y="0px"
	 viewBox="0 0 482.14 482.14" style="enable-background:new 0 0 482.14 482.14;" xml:space="preserve">
<g>
	<path d="M302.558,463.448c-3.531,1.182-7.281,1.796-11.127,1.796c-9.393,0-18.219-3.655-24.838-10.283l-4.272-4.263H67.934
		c-10.97,0-19.89-8.905-19.89-19.874V51.315c0-10.953,8.92-19.858,19.89-19.858l181.874-0.188v67.217
		c0,19.653,15.949,35.604,35.587,35.604l65.878-0.188l0.205,84.301h13.177c6.919,0,13.364,2.025,18.802,5.485V121.449L261.566,0
		H67.934C39.628,0,16.619,23.026,16.619,51.315v379.509c0,28.289,23.01,51.316,51.315,51.316h260.929
		C317.388,480.423,307.601,473.472,302.558,463.448z"/>
	<path d="M446.544,316.208h-2.222c-1.058-2.925-2.238-5.801-3.547-8.599l1.529-1.545c7.423-7.414,7.423-19.447,0-26.855
		l-21.686-21.679c-1.844-1.852-3.986-3.247-6.272-4.169c-6.857-2.78-15.004-1.395-20.583,4.169l-1.53,1.536
		c-2.805-1.315-5.643-2.49-8.589-3.554v-2.189c0-10.48-8.51-18.984-18.99-18.984h-30.67c-10.481,0-18.992,8.504-18.992,18.984v2.189
		c-2.946,1.064-5.814,2.238-8.621,3.554l-1.497-1.536c-3.593-3.562-8.432-5.564-13.443-5.564c-5.027,0-9.882,2.002-13.428,5.564
		l-21.701,21.679c-7.424,7.407-7.393,19.44,0,26.855l1.528,1.545c-1.308,2.798-2.491,5.674-3.53,8.599h-2.207
		c-10.465,0-18.975,8.502-18.975,18.982v30.686c0,10.472,8.51,18.976,18.975,18.976h2.191c1.055,2.931,2.238,5.8,3.546,8.613
		l-1.528,1.536c-7.424,7.408-7.424,19.44,0,26.854l21.701,21.688c5.438,5.436,13.334,6.809,20.11,4.264
		c2.458-0.923,4.775-2.285,6.761-4.264l1.497-1.545c2.807,1.323,5.675,2.498,8.621,3.561v2.184c0,10.495,8.511,18.99,18.992,18.99
		h30.67c10.48,0,18.99-8.495,18.99-18.99v-2.184c2.946-1.064,5.784-2.238,8.589-3.561l1.53,1.545
		c3.561,3.554,8.384,5.555,13.443,5.555c5.026,0,9.849-2.001,13.411-5.555l21.686-21.688c7.423-7.414,7.423-19.446,0-26.854
		l-1.529-1.536c1.309-2.813,2.522-5.683,3.547-8.613h2.222c10.448,0,18.977-8.504,18.977-18.976V335.19
		C465.521,324.71,456.993,316.208,446.544,316.208z M332.597,423.755c-28.021-6.398-50.117-28.486-56.516-56.516h35.02
		c4.207,9.59,11.914,17.296,21.496,21.513V423.755z M332.597,312.321c-9.582,4.218-17.289,11.924-21.496,21.513h-35.02
		c6.398-28.029,28.494-50.116,56.516-56.516V312.321z M366.008,423.755v-35.003c9.6-4.209,17.29-11.923,21.513-21.513h34.988
		C416.143,395.269,394.032,417.357,366.008,423.755z M387.521,333.834c-4.223-9.589-11.913-17.304-21.513-21.513v-35.003
		c28.023,6.399,50.135,28.486,56.501,56.516H387.521z"/>
</g>
<g>
</g>
<g>
</g>
<g>
</g>
<g>
</g>
<g>
</g>
<g>
</g>
<g>
</g>
<g>
</g>
<g>
</g>
<g>
</g>
<g>
</g>
<g>
</g>
<g>
</g>
<g>
</g>
<g>
</g>
</svg>
