<?xml version="1.0" encoding="iso-8859-1"?>
<!-- Generator: Adobe Illustrator 18.0.0, SVG Export Plug-In . SVG Version: 6.00 Build 0)  -->
<!DOCTYPE svg PUBLIC "-//W3C//DTD SVG 1.1//EN" "http://www.w3.org/Graphics/SVG/1.1/DTD/svg11.dtd">
<svg version="1.1" id="Capa_1" xmlns="http://www.w3.org/2000/svg" xmlns:xlink="http://www.w3.org/1999/xlink" x="0px" y="0px"
	 viewBox="0 0 482.14 482.14" style="enable-background:new 0 0 482.14 482.14;" xml:space="preserve">
<g>
	<path d="M336.849,430.824c0,10.969-8.903,19.874-19.856,19.874H52.77c-10.953,0-19.875-8.905-19.875-19.874V51.315
		c0-10.953,8.922-19.858,19.875-19.858l181.89-0.189v67.218c0,19.653,15.934,35.603,35.587,35.603l65.861-0.189l0.055,21.435
		c11.688,5.043,22.529,11.938,32.129,20.496v-54.381L246.417,0H52.77C24.481,0,1.455,23.025,1.455,51.315v379.509
		c0,28.289,23.026,51.315,51.315,51.315h264.223c25.168,0,46.074-18.281,50.385-42.254l-30.607-40.424L336.849,430.824z"/>
	<path d="M469.135,412.897l-75.011-77.163c-6.289,9.378-13.807,18.155-22.759,25.847c-8.968,7.723-18.738,13.821-28.951,18.597
		l64.948,85.785c6.776,8.966,16.989,14.75,28.18,15.947c1.441,0.15,2.876,0.229,4.311,0.229c9.731,0,19.188-3.46,26.634-9.857
		c8.542-7.328,13.648-17.873,14.153-29.125C481.176,431.92,476.983,420.967,469.135,412.897z"/>
	<path d="M288.505,161.527c-23.948,0-48.006,8.22-67.556,25.004c-43.356,37.29-48.354,102.93-11.064,146.335
		c20.503,23.837,49.558,36.074,78.771,36.074c23.948,0,47.998-8.218,67.548-25.012c43.389-37.257,48.352-102.914,11.096-146.303
		C346.802,173.773,317.733,161.527,288.505,161.527z M333.462,317.452c-12.987,11.143-28.953,16.604-44.839,16.604
		c-19.384,0-38.652-8.124-52.26-23.948c-24.744-28.809-21.435-72.355,7.343-97.1c12.979-11.134,28.953-16.587,44.84-16.587
		c19.399,0,38.674,8.116,52.275,23.948C365.549,249.148,362.24,292.725,333.462,317.452z"/>
	<path d="M266.448,225.38c-3.483-0.755-7.187-0.142-10.117,2.364c-20.678,17.762-23.027,49.047-5.28,69.724
		c2.506,2.9,6.101,4.083,9.662,3.815c2.379-0.158,4.806-0.883,6.76-2.586c4.885-4.177,5.421-11.521,1.26-16.391
		c-9.425-10.953-8.179-27.518,2.79-36.91c4.87-4.209,5.421-11.554,1.26-16.406C271.082,226.987,268.797,225.932,266.448,225.38z"/>
</g>
</svg>
